# xmcd
#
# Track frame offsets: 
#        150
#        18155
#        42020
#        59746
#        78226
#        101144
#        116614
#        138154
#        160122
#        190582
#
# Disc length: 2731 seconds
#
# Revision: 0
# Processed by: cddbd v1.5.2PL0 Copyright (c) Steve Scherf et al.
# Submitted via: ExactAudioCopy v0.95a5
#
DISCID=770aa90a
DTITLE=Eric Taylor - Hollywood Pocketknife
DYEAR=2007
DGENRE=Singer/Songwriter
TTITLE0=Hollywood Pocketknife
TTITLE1=Carniva Jim and Jean
TTITLE2=Highway Kind
TTITLE3=Jail Widow's Walk
TTITLE4=Better Man
TTITLE5=Olney's Poison and The Houston Blues
TTITLE6=A Matter of Degrees
TTITLE7=Postcards, 3 For A Dime
TTITLE8=Peppercorn Tree
TTITLE9=Rally 'Round The Flag
EXTD=
EXTT0=
EXTT1=
EXTT2=
EXTT3=
EXTT4=
EXTT5=
EXTT6=
EXTT7=
EXTT8=
EXTT9=
PLAYORDER=
